:FULLY-SPECIFIED
:FORCE-ALL-JOINTS-BE-3DOF
:DEGREES
2242
root -0.738098 13.835 -16.4042 911.154 -26.0198 168.804
lfemur 11.8091 -0.138575 -14.7841
ltibia 33.447 0 0
lfoot -24.1701 36.864 0
ltoes -43.4592 0 0
rfemur -71.6781 -22.9351 8.70779
rtibia 73.061 0 0
rfoot -6.13505 14.601 0
rtoes 3.67619 0 0
lowerback 9.31759 2.18129 -13.6225
upperback -2.85562 0.842331 -2.13892
thorax -8.60449 0.979379 5.20128
lowerneck 1.35485 -12.2827 -12.6857
upperneck 4.30246 -17.0835 10.5825
head 3.03337 -8.58117 4.49962
lclavicle 3.39286e-14 1.90325e-14 0
lhumerus -73.0179 -17.1454 104.58
lradius 103.584 0 0
lwrist 63.0497 0 0
lhand -9.73203 423.833 0
lfingers 7.12502 0 0
lthumb 16.2427 -334.171 0
rclavicle 3.39286e-14 1.90325e-14 0
rhumerus 51.4808 -10.6609 -59.6642
rradius 12.7296 0 0
rwrist 38.786 0 0
rhand -23.0149 -403.311 0
rfingers 7.12502 0 0
rthumb 3.80331 284.278 0
2243
root -0.741698 13.8283 -16.4291 911.28 -25.9568 168.766
lfemur 11.8358 -0.17366 -14.8822
ltibia 33.1955 0 0
lfoot -24.0901 36.8686 0
ltoes -43.6597 0 0
rfemur -71.8812 -22.9681 8.76219
rtibia 73.2741 0 0
rfoot -6.24999 14.6011 0
rtoes 3.76959 0 0
lowerback 9.21707 2.17303 -13.6553
upperback -2.87948 0.838422 -2.15154
thorax -8.57274 0.97698 5.20761
lowerneck 1.30563 -12.276 -12.6423
upperneck 4.31864 -17.0704 10.5737
head 3.04238 -8.57349 4.48876
lclavicle 3.34854e-14 1.97659e-14 0
lhumerus -72.6521 -17.2682 104.517
lradius 103.407 0 0
lwrist 62.8976 0 0
lhand -9.91431 423.445 0
lfingers 7.12502 0 0
lthumb 16.067 -328.204 0
rclavicle 3.34854e-14 1.97659e-14 0
rhumerus 51.2674 -10.611 -59.6323
rradius 13.1735 0 0
rwrist 38.3221 0 0
rhand -22.7125 -403.244 0
rfingers 7.12502 0 0
rthumb 4.05564 284.612 0
2244
root -0.745298 13.8215 -16.454 911.402 -25.8941 168.73
lfemur 11.8631 -0.206695 -14.9776
ltibia 32.9492 0 0
lfoot -24.0109 36.8722 0
ltoes -43.8558 0 0
rfemur -72.0784 -22.9988 8.81583
rtibia 73.4831 0 0
rfoot -6.3623 14.6007 0
rtoes 3.8607 0 0
lowerback 9.11944 2.16518 -13.6873
upperback -2.90233 0.834922 -2.16338
thorax -8.54162 0.974789 5.21428
lowerneck 1.25702 -12.269 -12.5994
upperneck 4.33505 -17.057 10.5646
head 3.05132 -8.56564 4.47795
lclavicle 3.30432e-14 2.04545e-14 0
lhumerus -72.2888 -17.3901 104.454
lradius 103.232 0 0
lwrist 62.746 0 0
lhand -10.0947 423.059 0
lfingers 7.12502 0 0
lthumb 15.8932 -322.369 0
rclavicle 3.30432e-14 2.04545e-14 0
rhumerus 51.055 -10.5605 -59.6001
rradius 13.6141 0 0
rwrist 37.8619 0 0
rhand -22.4116 -403.178 0
rfingers 7.12502 0 0
rthumb 4.30687 284.943 0
2245
root -0.748898 13.8147 -16.479 911.519 -25.8321 168.696
lfemur 11.8917 -0.23762 -15.0697
ltibia 32.708 0 0
lfoot -23.9328 36.8751 0
ltoes -44.0471 0 0
rfemur -72.2695 -23.0276 8.86851
rtibia 73.6878 0 0
rfoot -6.47222 14.5999 0
rtoes 3.94915 0 0
lowerback 9.02496 2.15787 -13.7185
upperback -2.92415 0.831959 -2.17448
thorax -8.51127 0.972876 5.22119
lowerneck 1.20939 -12.2619 -12.5572
upperneck 4.35131 -17.0434 10.5555
head 3.06006 -8.55775 4.4673
lclavicle 3.2604e-14 2.10941e-14 0
lhumerus -71.932 -17.51 104.394
lradius 103.059 0 0
lwrist 62.597 0 0
lhand -10.272 422.677 0
lfingers 7.12502 0 0
lthumb 15.7223 -316.689 0
rclavicle 3.2604e-14 2.10941e-14 0
rhumerus 50.8461 -10.5098 -59.5673
rradius 14.047 0 0
rwrist 37.4096 0 0
rhand -22.1155 -403.112 0
rfingers 7.12502 0 0
rthumb 4.55412 285.269 0
2246
root -0.752499 13.808 -16.5039 911.631 -25.7711 168.663
lfemur 11.9224 -0.266373 -15.1581
ltibia 32.4722 0 0
lfoot -23.8559 36.8776 0
ltoes -44.2332 0 0
rfemur -72.4542 -23.0548 8.92002
rtibia 73.8878 0 0
rfoot -6.57992 14.5992 0
rtoes 4.03458 0 0
lowerback 8.93389 2.15122 -13.7489
upperback -2.94491 0.829661 -2.18488
thorax -8.48185 0.971311 5.22825
lowerneck 1.1631 -12.2548 -12.5161
upperneck 4.36705 -17.0299 10.5464
head 3.06848 -8.54996 4.4569
lclavicle 3.217e-14 2.16802e-14 0
lhumerus -71.5857 -17.6268 104.336
lradius 102.892 0 0
lwrist 62.4529 0 0
lhand -10.4451 422.3 0
lfingers 7.12502 0 0
lthumb 15.5554 -311.188 0
rclavicle 3.217e-14 2.16802e-14 0
rhumerus 50.6429 -10.4596 -59.5335
rradius 14.4676 0 0
rwrist 36.9693 0 0
rhand -21.8276 -403.049 0
rfingers 7.12502 0 0
rthumb 4.79454 285.585 0
2247
root -0.756099 13.8012 -16.5288 911.738 -25.7115 168.633
lfemur 11.956 -0.292896 -15.2419
ltibia 32.2417 0 0
lfoot -23.7803 36.88 0
ltoes -44.4137 0 0
rfemur -72.6323 -23.0807 8.97018
rtibia 74.0829 0 0
rfoot -6.68563 14.5986 0
rtoes 4.11664 0 0
lowerback 8.8465 2.14537 -13.7784
upperback -2.96457 0.828156 -2.19462
thorax -8.4535 0.970164 5.23538
lowerneck 1.11851 -12.2479 -12.4764
upperneck 4.38191 -17.0168 10.5376
head 3.07646 -8.5424 4.44686
lclavicle 3.17434e-14 2.22087e-14 0
lhumerus -71.2537 -17.7393 104.281
lradius 102.73 0 0
lwrist 62.3161 0 0
lhand -10.613 421.931 0
lfingers 7.12502 0 0
lthumb 15.3936 -305.89 0
rclavicle 3.17434e-14 2.22087e-14 0
rhumerus 50.448 -10.4105 -59.4983
rradius 14.8713 0 0
rwrist 36.5452 0 0
rhand -21.5514 -402.987 0
rfingers 7.12502 0 0
rthumb 5.02528 285.888 0
2248
root -0.759699 13.7944 -16.5538 911.84 -25.6538 168.604
lfemur 11.9932 -0.317128 -15.3207
ltibia 32.0168 0 0
lfoot -23.7064 36.8825 0
ltoes -44.5881 0 0
rfemur -72.8038 -23.1055 9.01879
rtibia 74.273 0 0
rfoot -6.78955 14.5987 0
rtoes 4.19495 0 0
lowerback 8.76305 2.14043 -13.8071
upperback -2.98311 0.827573 -2.20375
thorax -8.42636 0.969505 5.24248
lowerneck 1.07601 -12.2414 -12.4383
upperneck 4.3955 -17.0045 10.5292
head 3.08388 -8.53522 4.43727
lclavicle 3.13265e-14 2.26751e-14 0
lhumerus -70.94 -17.8463 104.23
lradius 102.577 0 0
lwrist 62.1887 0 0
lhand -10.7744 421.572 0
lfingers 7.12502 0 0
lthumb 15.2381 -300.819 0
rclavicle 3.13265e-14 2.26751e-14 0
rhumerus 50.2635 -10.3632 -59.4614
rradius 15.2534 0 0
rwrist 36.1417 0 0
rhand -21.2903 -402.929 0
rfingers 7.12502 0 0
rthumb 5.24348 286.175 0
2249
root -0.763299 13.7877 -16.5787 911.937 -25.5982 168.576
lfemur 12.0346 -0.339008 -15.3937
ltibia 31.7975 0 0
lfoot -23.6342 36.8857 0
ltoes -44.7561 0 0
rfemur -72.9683 -23.1297 9.06564
rtibia 74.4579 0 0
rfoot -6.89187 14.5996 0
rtoes 4.26917 0 0
lowerback 8.68381 2.13653 -13.8349
upperback -3.00049 0.828039 -2.21232
thorax -8.40058 0.969403 5.24947
lowerneck 1.03594 -12.2356 -12.4022
upperneck 4.40747 -16.993 10.5214
head 3.09061 -8.52854 4.42824
lclavicle 3.09213e-14 2.30752e-14 0
lhumerus -70.6487 -17.9467 104.183
lradius 102.434 0 0
lwrist 62.073 0 0
lhand -10.9283 421.223 0
lfingers 7.12502 0 0
lthumb 15.0897 -295.998 0
rclavicle 3.09213e-14 2.30752e-14 0
rhumerus 50.092 -10.3183 -59.4225
rradius 15.6095 0 0
rwrist 35.7629 0 0
rhand -21.0476 -402.874 0
rfingers 7.12502 0 0
rthumb 5.44627 286.442 0
2250
root -0.766899 13.7809 -16.6036 912.029 -25.5452 168.55
lfemur 12.0811 -0.358478 -15.4605
ltibia 31.5839 0 0
lfoot -23.564 36.8897 0
ltoes -44.9173 0 0
rfemur -73.1257 -23.1535 9.11054
rtibia 74.6372 0 0
rfoot -6.99282 14.6016 0
rtoes 4.33892 0 0
lowerback 8.60903 2.1338 -13.8618
upperback -3.01669 0.829685 -2.22036
thorax -8.37631 0.969929 5.25626
lowerneck 0.998673 -12.2305 -12.3683
upperneck 4.41743 -16.9828 10.5144
head 3.09653 -8.5225 4.41986
lclavicle 3.05301e-14 2.34047e-14 0
lhumerus -70.3835 -18.0395 104.143
lradius 102.303 0 0
lwrist 61.9713 0 0
lhand -11.0735 420.887 0
lfingers 7.12502 0 0
lthumb 14.9498 -291.452 0
rclavicle 3.05301e-14 2.34047e-14 0
rhumerus 49.9359 -10.2764 -59.3811
rradius 15.935 0 0
rwrist 35.4131 0 0
rhand -20.8267 -402.824 0
rfingers 7.12502 0 0
rthumb 5.63081 286.686 0
2251
root -0.770499 13.7741 -16.6286 912.116 -25.4951 168.526
lfemur 12.1335 -0.375476 -15.5203
ltibia 31.3761 0 0
lfoot -23.496 36.8948 0
ltoes -45.0711 0 0
rfemur -73.2757 -23.1773 9.15329
rtibia 74.8108 0 0
rfoot -7.09258 14.605 0
rtoes 4.40385 0 0
lowerback 8.539 2.13236 -13.8878
upperback -3.03167 0.832636 -2.22792
thorax -8.35369 0.971152 5.26276
lowerneck 0.964582 -12.2265 -12.3369
upperneck 4.42502 -16.974 10.5084
head 3.10152 -8.51723 4.41223
lclavicle 3.01549e-14 2.36591e-14 0
lhumerus -70.1486 -18.1233 104.108
lradius 102.184 0 0
lwrist 61.8859 0 0
lhand -11.2089 420.566 0
lfingers 7.12502 0 0
lthumb 14.8193 -287.204 0
rclavicle 3.01549e-14 2.36591e-14 0
rhumerus 49.7973 -10.2381 -59.3368
rradius 16.2253 0 0
rwrist 35.0964 0 0
rhand -20.6311 -402.778 0
rfingers 7.12502 0 0
rthumb 5.79424 286.903 0
2252
root -0.774099 13.7674 -16.6535 912.198 -25.4483 168.503
lfemur 12.1924 -0.389943 -15.5726
ltibia 31.1743 0 0
lfoot -23.4303 36.9015 0
ltoes -45.2172 0 0
rfemur -73.4182 -23.2013 9.19369
rtibia 74.9786 0 0
rfoot -7.19137 14.6101 0
rtoes 4.4636 0 0
lowerback 8.47397 2.13233 -13.9128
upperback -3.04541 0.837023 -2.23504
thorax -8.33287 0.973143 5.26888
lowerneck 0.934031 -12.2236 -12.3084
upperneck 4.42987 -16.9671 10.5034
head 3.10545 -8.51288 4.40545
lclavicle 2.97981e-14 2.38343e-14 0
lhumerus -69.9478 -18.1972 104.081
lradius 102.081 0 0
lwrist 61.819 0 0
lhand -11.3335 420.262 0
lfingers 7.12502 0 0
lthumb 14.6993 -283.278 0
rclavicle 2.97981e-14 2.38343e-14 0
rhumerus 49.6789 -10.204 -59.2895
rradius 16.4757 0 0
rwrist 34.8171 0 0
rhand -20.4641 -402.738 0
rfingers 7.12502 0 0
rthumb 5.93369 287.09 0
